<?xml version="1.0" encoding="UTF-8"?><svg id="Layer_2" xmlns="http://www.w3.org/2000/svg" viewBox="0 0 775.44 137.47"><defs><style>.cls-1{fill:#fff;}.cls-2{fill:#961d20;}.cls-3{fill:#010101;}</style></defs><g id="Layer_1-2"><g><g><path class="cls-3" d="M113.76,1.74h3.79V35.14h-3.79V1.74Z"/><path class="cls-3" d="M124.69,1.74h4.41l10.47,20.45c.29,.57,.55,1.1,.79,1.56,.24,.48,.48,.95,.71,1.39,.22,.46,.46,.93,.68,1.41s.48,.99,.77,1.56h.09V1.74h3.46V35.14h-3.46l-11.19-21.53c-.33-.59-.62-1.15-.86-1.63-.26-.48-.51-.95-.73-1.43-.24-.48-.48-.97-.73-1.5-.26-.51-.55-1.1-.86-1.76h-.09v27.85h-3.46V1.74Z"/><path class="cls-3" d="M152.98,1.74h7.34c2.29,0,4.34,.33,6.1,.97,1.76,.64,3.26,1.63,4.45,2.97,1.19,1.34,2.09,3.06,2.71,5.18,.62,2.12,.93,4.63,.93,7.54s-.33,5.47-.95,7.58c-.62,2.12-1.54,3.83-2.73,5.2-1.21,1.37-2.69,2.36-4.45,3-1.76,.66-3.79,.97-6.06,.97h-7.34V1.74Zm7.84,30.01c1.67,0,3.13-.24,4.36-.77,1.23-.51,2.27-1.3,3.09-2.38,.82-1.08,1.43-2.47,1.83-4.14s.62-3.7,.62-6.06-.22-4.25-.62-5.93c-.4-1.65-1.01-3.02-1.83-4.1-.82-1.06-1.85-1.85-3.09-2.38-1.26-.51-2.73-.77-4.41-.77h-4.01V31.75h4.05Z"/><path class="cls-3" d="M180.29,1.74h3.79V35.14h-3.79V1.74Z"/><path class="cls-3" d="M192.52,35.14h-3.57L198.75,1.6h3.5l9.81,33.54h-3.79l-2.67-9.61h-10.42l-2.67,9.61Zm10.73-18c-.29-.97-.55-1.92-.79-2.82-.26-.9-.51-1.78-.73-2.62s-.44-1.65-.66-2.45-.42-1.61-.62-2.4h-.09c-.22,.82-.42,1.63-.62,2.42-.22,.79-.44,1.61-.66,2.45s-.46,1.67-.73,2.56-.53,1.81-.79,2.78l-1.43,5.18h8.57l-1.45-5.09Z"/><path class="cls-3" d="M216.67,1.74h4.41l10.47,20.45c.29,.57,.55,1.1,.79,1.56,.24,.48,.48,.95,.71,1.39,.22,.46,.46,.93,.68,1.41s.48,.99,.77,1.56h.09V1.74h3.46V35.14h-3.46l-11.19-21.53c-.33-.59-.62-1.15-.86-1.63-.26-.48-.51-.95-.73-1.43-.24-.48-.48-.97-.73-1.5-.26-.51-.55-1.1-.86-1.76h-.09v27.85h-3.46V1.74Z"/><path class="cls-3" d="M246.26,35.14h-3.57L252.5,1.6h3.5l9.81,33.54h-3.79l-2.67-9.61h-10.42l-2.67,9.61Zm10.73-18c-.29-.97-.55-1.92-.79-2.82-.26-.9-.51-1.78-.73-2.62s-.44-1.65-.66-2.45-.42-1.61-.62-2.4h-.09c-.22,.82-.42,1.63-.62,2.42-.22,.79-.44,1.61-.66,2.45s-.46,1.67-.73,2.56-.53,1.81-.79,2.78l-1.43,5.18h8.57l-1.45-5.09Z"/><path class="cls-3" d="M289.54,35.74c-1.85,0-3.44-.29-4.76-.82-1.32-.55-2.38-1.34-3.22-2.36s-1.45-2.23-1.85-3.64c-.4-1.41-.59-3-.59-4.76V1.74h3.79V23.69c0,1.41,.11,2.64,.33,3.72s.62,1.98,1.15,2.71c.53,.75,1.21,1.3,2.07,1.7,.84,.4,1.9,.57,3.13,.57s2.27-.18,3.13-.57c.84-.37,1.54-.93,2.07-1.67s.9-1.65,1.15-2.71c.22-1.06,.35-2.29,.35-3.66V1.74h3.64V24.08c0,1.72-.2,3.28-.59,4.69-.4,1.43-1.01,2.67-1.85,3.7-.84,1.04-1.92,1.83-3.24,2.4s-2.89,.86-4.69,.86Z"/><path class="cls-3" d="M306.58,1.74h4.41l10.47,20.45c.29,.57,.55,1.1,.79,1.56,.24,.48,.48,.95,.71,1.39,.22,.46,.46,.93,.68,1.41s.48,.99,.77,1.56h.09V1.74h3.46V35.14h-3.46l-11.19-21.53c-.33-.59-.62-1.15-.86-1.63-.26-.48-.51-.95-.73-1.43-.24-.48-.48-.97-.73-1.5-.26-.51-.55-1.1-.86-1.76h-.09v27.85h-3.46V1.74Z"/><path class="cls-3" d="M335.13,1.74h3.79V35.14h-3.79V1.74Z"/><path class="cls-3" d="M343.79,1.74h3.79l5.02,18.07c.53,1.9,1.01,3.66,1.45,5.29,.42,1.63,.84,3.24,1.23,4.85h.11c.18-.82,.37-1.63,.59-2.42s.44-1.61,.66-2.42,.44-1.65,.68-2.51c.22-.84,.48-1.74,.75-2.69l5.02-18.16h3.57l-9.67,33.54h-3.55L343.79,1.74Z"/><path class="cls-3" d="M371.3,1.74h17.06v3.48h-13.27V15.77h9.7v3.44h-9.7v12.49h14.04v3.44h-17.83V1.74Z"/><path class="cls-3" d="M394.21,1.74h9.48c1.61,0,3.04,.2,4.3,.57,1.26,.4,2.31,.97,3.2,1.76,.86,.79,1.52,1.76,1.98,2.95,.44,1.19,.68,2.6,.68,4.21,0,1.34-.18,2.53-.51,3.55-.35,1.01-.82,1.9-1.39,2.62-.57,.75-1.26,1.34-2.01,1.81-.77,.48-1.59,.82-2.42,1.04l6.77,14.9h-3.88l-6.54-14.21h-5.91v14.21h-3.75V1.74Zm9.23,15.93c1.1,0,2.07-.11,2.91-.33s1.54-.57,2.12-1.08,.99-1.17,1.28-1.98c.29-.79,.44-1.81,.44-3,0-1.1-.15-2.03-.44-2.8s-.71-1.41-1.26-1.9c-.57-.48-1.28-.82-2.12-1.04-.84-.22-1.83-.33-2.93-.33h-5.49v12.45h5.49Z"/><path class="cls-3" d="M429.08,35.7c-1.41,0-2.67-.2-3.79-.55-1.15-.37-2.16-.9-3.06-1.59-.93-.68-1.72-1.52-2.42-2.49s-1.3-2.07-1.81-3.28l3.24-1.48c.37,.88,.82,1.7,1.32,2.45s1.08,1.39,1.74,1.92c.64,.53,1.37,.95,2.16,1.23,.79,.31,1.65,.44,2.62,.44s1.85-.11,2.64-.37c.77-.26,1.43-.62,1.96-1.08s.95-1.04,1.23-1.7,.44-1.39,.44-2.23c0-.97-.2-1.81-.57-2.53-.4-.71-.9-1.34-1.52-1.92-.64-.55-1.37-1.06-2.18-1.5-.84-.44-1.7-.86-2.58-1.3-.71-.33-1.43-.68-2.16-1.04s-1.43-.75-2.09-1.17c-.66-.42-1.3-.88-1.87-1.41-.57-.51-1.08-1.08-1.52-1.74-.44-.64-.77-1.37-1.01-2.18-.26-.79-.37-1.72-.37-2.75,0-1.21,.22-2.34,.68-3.35s1.1-1.9,1.92-2.64c.82-.73,1.78-1.3,2.89-1.7,1.1-.4,2.29-.62,3.59-.62s2.49,.2,3.55,.57c1.06,.37,1.98,.88,2.8,1.52s1.52,1.39,2.12,2.23c.59,.86,1.1,1.76,1.5,2.71l-3.24,1.59c-.31-.71-.68-1.37-1.08-2.01s-.88-1.21-1.41-1.7c-.55-.48-1.17-.86-1.87-1.15s-1.52-.44-2.4-.44c-.79,0-1.52,.13-2.18,.35-.66,.24-1.21,.57-1.67,.99-.46,.44-.82,.95-1.06,1.54-.26,.59-.37,1.23-.37,1.94,0,.97,.18,1.83,.55,2.53,.37,.73,.88,1.37,1.5,1.92,.62,.57,1.34,1.08,2.16,1.52,.79,.44,1.63,.88,2.51,1.3,.71,.35,1.43,.71,2.16,1.06s1.43,.75,2.12,1.17c.66,.44,1.3,.9,1.9,1.41,.57,.53,1.1,1.1,1.54,1.76s.77,1.39,1.04,2.2c.24,.82,.37,1.72,.37,2.73,0,1.23-.24,2.38-.71,3.44-.46,1.08-1.12,2.01-1.98,2.8-.88,.79-1.92,1.43-3.15,1.9-1.23,.44-2.6,.68-4.14,.68Z"/><path class="cls-3" d="M444.88,1.74h3.79V35.14h-3.79V1.74Z"/><path class="cls-3" d="M462.15,5.22h-8.62V1.74h21.04v3.48h-8.64v29.93h-3.79V5.22Z"/><path class="cls-3" d="M485.77,21.37l-9.26-19.63h3.88l7.32,16.17h.09l7.32-16.17h3.64l-9.19,19.55v13.86h-3.79v-13.77Z"/></g><g><path class="cls-3" d="M122.64,83.86c-1.41,0-2.67-.2-3.79-.55-1.15-.37-2.16-.9-3.06-1.59-.93-.68-1.72-1.52-2.42-2.49s-1.3-2.07-1.81-3.28l3.24-1.48c.37,.88,.82,1.7,1.32,2.45s1.08,1.39,1.74,1.92c.64,.53,1.37,.95,2.16,1.23,.79,.31,1.65,.44,2.62,.44s1.85-.11,2.64-.37c.77-.26,1.43-.62,1.96-1.08s.95-1.04,1.23-1.7,.44-1.39,.44-2.23c0-.97-.2-1.81-.57-2.53-.4-.71-.9-1.34-1.52-1.92-.64-.55-1.37-1.06-2.18-1.5-.84-.44-1.7-.86-2.58-1.3-.71-.33-1.43-.68-2.16-1.04s-1.43-.75-2.09-1.17-1.3-.88-1.87-1.41c-.57-.51-1.08-1.08-1.52-1.74-.44-.64-.77-1.37-1.01-2.18-.26-.79-.37-1.72-.37-2.75,0-1.21,.22-2.34,.68-3.35s1.1-1.9,1.92-2.64c.82-.73,1.78-1.3,2.89-1.7s2.29-.62,3.59-.62,2.49,.2,3.55,.57,1.98,.88,2.8,1.52,1.52,1.39,2.12,2.23c.59,.86,1.1,1.76,1.5,2.71l-3.24,1.59c-.31-.71-.68-1.37-1.08-2.01s-.88-1.21-1.41-1.7c-.55-.48-1.17-.86-1.87-1.15s-1.52-.44-2.4-.44c-.79,0-1.52,.13-2.18,.35-.66,.24-1.21,.57-1.67,.99-.46,.44-.82,.95-1.06,1.54-.26,.59-.37,1.23-.37,1.94,0,.97,.18,1.83,.55,2.53,.37,.73,.88,1.37,1.5,1.92,.62,.57,1.34,1.08,2.16,1.52,.79,.44,1.63,.88,2.51,1.3,.71,.35,1.43,.71,2.16,1.06s1.43,.75,2.12,1.17c.66,.44,1.3,.9,1.9,1.41,.57,.53,1.1,1.1,1.54,1.76s.77,1.39,1.04,2.2c.24,.82,.37,1.72,.37,2.73,0,1.23-.24,2.38-.71,3.44-.46,1.08-1.12,2.01-1.98,2.8-.88,.79-1.92,1.43-3.15,1.9-1.23,.44-2.6,.68-4.14,.68Z"/><path class="cls-3" d="M145.58,83.82c-1.28,0-2.45-.26-3.55-.79-1.1-.53-2.07-1.3-2.89-2.36-.82-1.04-1.45-2.34-1.94-3.88s-.71-3.35-.71-5.4,.24-3.99,.75-5.55c.48-1.54,1.17-2.84,2.03-3.86,.84-1.01,1.83-1.76,2.95-2.25s2.31-.75,3.57-.75c1.19,0,2.23,.2,3.11,.57,.88,.4,1.63,.9,2.27,1.54,.62,.66,1.15,1.41,1.56,2.27,.4,.86,.75,1.76,1.04,2.71l-3.33,.9c-.22-.75-.48-1.41-.75-2.01s-.59-1.1-.97-1.52-.82-.75-1.3-.97-1.06-.35-1.72-.35c-.77,0-1.5,.18-2.16,.53s-1.26,.9-1.76,1.65-.9,1.72-1.19,2.89c-.31,1.17-.44,2.56-.44,4.19,0,1.45,.11,2.75,.37,3.9,.24,1.15,.59,2.14,1.08,2.93,.46,.82,1.04,1.43,1.74,1.87,.68,.44,1.48,.64,2.36,.64,1.26,0,2.29-.37,3.11-1.17,.79-.79,1.43-2.03,1.9-3.75l3.2,.86c-.66,2.25-1.67,3.99-3.04,5.24-1.37,1.28-3.13,1.9-5.29,1.9Z"/><path class="cls-3" d="M158.2,49.91h3.66v12.87c.4-.44,.86-.88,1.41-1.32,.53-.44,1.12-.86,1.78-1.23,.64-.35,1.32-.66,2.07-.88,.73-.22,1.48-.35,2.27-.35,1.92,0,3.37,.57,4.36,1.7s1.5,2.78,1.5,4.94v17.7h-3.61v-16.92c0-1.41-.26-2.47-.77-3.15-.53-.68-1.39-1.04-2.6-1.04-.57,0-1.17,.11-1.74,.31-.59,.2-1.17,.46-1.72,.77-.57,.33-1.1,.71-1.59,1.1-.51,.42-.97,.84-1.37,1.23v17.7h-3.66V49.91Z"/><path class="cls-3" d="M189.17,83.82c-1.32,0-2.56-.26-3.7-.79-1.15-.53-2.16-1.3-3-2.36-.86-1.04-1.52-2.34-2.01-3.88-.48-1.54-.73-3.35-.73-5.4s.24-3.83,.73-5.38c.48-1.54,1.15-2.84,1.98-3.9,.84-1.04,1.85-1.81,3-2.34s2.38-.79,3.72-.79,2.56,.26,3.7,.79,2.14,1.3,2.97,2.34c.84,1.06,1.5,2.36,1.98,3.9s.73,3.35,.73,5.38-.24,3.86-.73,5.4c-.48,1.54-1.15,2.84-1.98,3.88-.84,1.06-1.83,1.83-2.97,2.36-1.15,.53-2.38,.79-3.7,.79Zm0-3.09c.93,0,1.76-.22,2.49-.66,.71-.44,1.3-1.06,1.78-1.87s.84-1.81,1.08-2.95,.37-2.45,.37-3.86c0-1.28-.13-2.47-.35-3.59s-.57-2.12-1.04-2.95-1.06-1.5-1.78-1.98-1.59-.73-2.56-.73-1.81,.22-2.51,.66c-.73,.44-1.32,1.08-1.81,1.9s-.86,1.78-1.1,2.93-.35,2.4-.35,3.77,.11,2.53,.33,3.66c.22,1.15,.55,2.14,1.01,2.97s1.06,1.5,1.78,1.98c.73,.48,1.61,.73,2.64,.73Z"/><path class="cls-3" d="M211.51,83.82c-1.32,0-2.56-.26-3.7-.79-1.15-.53-2.16-1.3-3-2.36-.86-1.04-1.52-2.34-2.01-3.88-.48-1.54-.73-3.35-.73-5.4s.24-3.83,.73-5.38,1.15-2.84,1.98-3.9c.84-1.04,1.85-1.81,3-2.34s2.38-.79,3.72-.79,2.56,.26,3.7,.79,2.14,1.3,2.97,2.34c.84,1.06,1.5,2.36,1.98,3.9s.73,3.35,.73,5.38-.24,3.86-.73,5.4c-.48,1.54-1.15,2.84-1.98,3.88-.84,1.06-1.83,1.83-2.97,2.36-1.15,.53-2.38,.79-3.7,.79Zm0-3.09c.93,0,1.76-.22,2.49-.66,.71-.44,1.3-1.06,1.78-1.87s.84-1.81,1.08-2.95,.37-2.45,.37-3.86c0-1.28-.13-2.47-.35-3.59s-.57-2.12-1.04-2.95-1.06-1.5-1.78-1.98-1.59-.73-2.56-.73-1.81,.22-2.51,.66c-.73,.44-1.32,1.08-1.81,1.9s-.86,1.78-1.1,2.93-.35,2.4-.35,3.77,.11,2.53,.33,3.66c.22,1.15,.55,2.14,1.01,2.97s1.06,1.5,1.78,1.98,1.61,.73,2.64,.73Z"/><path class="cls-3" d="M225.77,49.91h3.66v33.41h-3.66V49.91Z"/><path class="cls-3" d="M252.78,83.82c-1.32,0-2.56-.26-3.7-.79-1.15-.53-2.16-1.3-3-2.36-.86-1.04-1.52-2.34-2.01-3.88s-.73-3.35-.73-5.4,.24-3.83,.73-5.38,1.15-2.84,1.98-3.9c.84-1.04,1.85-1.81,3-2.34,1.15-.53,2.38-.79,3.72-.79s2.56,.26,3.7,.79,2.14,1.3,2.97,2.34c.84,1.06,1.5,2.36,1.98,3.9,.48,1.54,.73,3.35,.73,5.38s-.24,3.86-.73,5.4-1.15,2.84-1.98,3.88c-.84,1.06-1.83,1.83-2.97,2.36s-2.38,.79-3.7,.79Zm0-3.09c.93,0,1.76-.22,2.49-.66,.71-.44,1.3-1.06,1.78-1.87s.84-1.81,1.08-2.95c.24-1.15,.37-2.45,.37-3.86,0-1.28-.13-2.47-.35-3.59s-.57-2.12-1.04-2.95-1.06-1.5-1.78-1.98c-.73-.48-1.59-.73-2.56-.73s-1.81,.22-2.51,.66c-.73,.44-1.32,1.08-1.81,1.9s-.86,1.78-1.1,2.93-.35,2.4-.35,3.77,.11,2.53,.33,3.66c.22,1.15,.55,2.14,1.01,2.97s1.06,1.5,1.78,1.98,1.61,.73,2.64,.73Z"/><path class="cls-3" d="M268.36,62.51h-3.48v-3.02h3.48v-3.61c0-1.94,.53-3.44,1.59-4.47,1.06-1.01,2.69-1.54,4.91-1.54,.09,0,.24,.02,.42,.02s.37,.02,.55,.02,.35,.02,.51,.02c.13,.02,.22,.04,.26,.04v3.02h-.24c-.13,0-.26-.02-.42-.02h-.44c-.13,0-.22-.02-.24-.02-.48,0-.93,.07-1.32,.15s-.75,.26-1.04,.48c-.31,.24-.53,.55-.68,.95-.18,.4-.24,.86-.24,1.43v3.53h4.45v3.02h-4.45v20.8h-3.61v-20.8Z"/><path class="cls-3" d="M290.03,49.91h3.79v33.41h-3.79V49.91Z"/><path class="cls-3" d="M300.41,59.49h3.66v3.28c.4-.44,.86-.88,1.41-1.32,.53-.44,1.12-.86,1.78-1.23,.64-.35,1.32-.66,2.07-.88,.73-.22,1.48-.35,2.27-.35,1.92,0,3.37,.57,4.36,1.7,.99,1.12,1.5,2.78,1.5,4.94v17.7h-3.61v-16.92c0-1.41-.26-2.47-.77-3.15-.53-.68-1.39-1.04-2.6-1.04-.57,0-1.17,.11-1.74,.31-.59,.2-1.17,.46-1.72,.77-.57,.33-1.1,.71-1.59,1.1-.51,.42-.97,.84-1.37,1.23v17.7h-3.66v-23.82Z"/><path class="cls-3" d="M324.6,62.51h-3.48v-3.02h3.48v-3.61c0-1.94,.53-3.44,1.59-4.47,1.06-1.01,2.69-1.54,4.91-1.54,.09,0,.24,.02,.42,.02s.37,.02,.55,.02,.35,.02,.51,.02c.13,.02,.22,.04,.26,.04v3.02h-.24c-.13,0-.26-.02-.42-.02h-.44c-.13,0-.22-.02-.24-.02-.48,0-.93,.07-1.32,.15s-.75,.26-1.04,.48c-.31,.24-.53,.55-.68,.95-.18,.4-.24,.86-.24,1.43v3.53h4.45v3.02h-4.45v20.8h-3.61v-20.8Z"/><path class="cls-3" d="M344.76,83.82c-1.32,0-2.56-.26-3.7-.79-1.15-.53-2.16-1.3-3-2.36-.86-1.04-1.52-2.34-2.01-3.88s-.73-3.35-.73-5.4,.24-3.83,.73-5.38c.48-1.54,1.15-2.84,1.98-3.9,.84-1.04,1.85-1.81,3-2.34s2.38-.79,3.72-.79,2.56,.26,3.7,.79c1.15,.53,2.14,1.3,2.97,2.34,.84,1.06,1.5,2.36,1.98,3.9s.73,3.35,.73,5.38-.24,3.86-.73,5.4c-.48,1.54-1.15,2.84-1.98,3.88-.84,1.06-1.83,1.83-2.97,2.36-1.15,.53-2.38,.79-3.7,.79Zm0-3.09c.93,0,1.76-.22,2.49-.66,.71-.44,1.3-1.06,1.78-1.87s.84-1.81,1.08-2.95,.37-2.45,.37-3.86c0-1.28-.13-2.47-.35-3.59s-.57-2.12-1.04-2.95-1.06-1.5-1.78-1.98-1.59-.73-2.56-.73-1.81,.22-2.51,.66c-.73,.44-1.32,1.08-1.81,1.9s-.86,1.78-1.1,2.93-.35,2.4-.35,3.77,.11,2.53,.33,3.66c.22,1.15,.55,2.14,1.01,2.97s1.06,1.5,1.78,1.98c.73,.48,1.61,.73,2.64,.73Z"/><path class="cls-3" d="M358.8,59.49h3.66v4.1h.09c.33-.59,.73-1.17,1.21-1.72s1.04-1.04,1.67-1.48c.62-.42,1.32-.75,2.09-1.01s1.63-.4,2.56-.4h.51l-.24,3.44c-.13,0-.24,0-.35-.02h-.31c-.09,0-.15-.02-.2-.02-.79,0-1.52,.13-2.23,.37s-1.34,.57-1.94,.99c-.59,.44-1.12,.95-1.61,1.54-.48,.62-.9,1.26-1.26,1.96v16.06h-3.66v-23.82Z"/><path class="cls-3" d="M374.38,59.49h3.66v3.28c.42-.44,.9-.9,1.43-1.37,.53-.44,1.12-.86,1.74-1.21s1.26-.66,1.96-.88c.68-.22,1.39-.33,2.14-.33,.79,0,1.5,.09,2.12,.26s1.15,.42,1.59,.73c.44,.33,.79,.73,1.06,1.19,.26,.48,.48,1.01,.64,1.61,.44-.48,.95-.95,1.5-1.41,.53-.44,1.12-.86,1.74-1.21s1.3-.62,2.01-.84c.71-.22,1.43-.33,2.2-.33,1.92,0,3.37,.57,4.34,1.7,.97,1.12,1.45,2.78,1.45,4.94v17.7h-3.61v-16.92c0-1.41-.26-2.47-.77-3.15s-1.37-1.04-2.58-1.04c-.57,0-1.1,.09-1.63,.26s-1.06,.42-1.56,.71c-.51,.31-.99,.64-1.45,1.04-.48,.4-.93,.79-1.34,1.19v17.92h-3.66v-16.92c0-.71-.07-1.32-.15-1.85-.11-.53-.29-.95-.53-1.3s-.57-.59-.99-.77-.93-.26-1.54-.26c-1.01,0-2.05,.33-3.06,.95s-2.03,1.43-3.02,2.42v17.74h-3.66v-23.82Z"/><path class="cls-3" d="M413.96,83.62c-1.81,0-3.2-.51-4.19-1.56-1.01-1.04-1.5-2.49-1.5-4.39,0-1.19,.24-2.29,.77-3.31,.51-1.01,1.3-1.96,2.38-2.8,1.08-.84,2.47-1.61,4.14-2.27s3.68-1.21,6.02-1.7v-1.43c0-1.37-.31-2.36-.88-3-.59-.64-1.5-.97-2.69-.97-.73,0-1.41,.09-2.07,.26s-1.28,.4-1.85,.68c-.59,.29-1.15,.62-1.65,1.01-.53,.4-1.01,.79-1.45,1.23l-2.05-2.2c1.23-1.23,2.64-2.25,4.23-3.04,1.56-.77,3.31-1.17,5.2-1.17,2.31,0,4.03,.64,5.13,1.87s1.65,3.02,1.65,5.31v11.28c0,1.45,.02,2.64,.11,3.57s.24,1.67,.46,2.29h-3.66c-.13-.46-.26-.93-.35-1.37s-.13-1.01-.13-1.7c-.97,1.06-2.12,1.9-3.39,2.49-1.28,.57-2.69,.88-4.23,.88Zm1.21-2.97c1.23,0,2.4-.29,3.5-.86s2.07-1.32,2.91-2.25v-7.32c-1.85,.4-3.39,.86-4.63,1.37-1.26,.51-2.27,1.06-3.02,1.63-.75,.59-1.3,1.23-1.61,1.9-.33,.66-.48,1.34-.48,2.05,0,1.21,.29,2.09,.88,2.64,.57,.57,1.39,.84,2.45,.84Z"/><path class="cls-3" d="M438.2,83.58c-1.1,0-2.03-.11-2.78-.29-.75-.2-1.37-.53-1.83-.97-.48-.44-.82-1.04-1.04-1.76-.22-.71-.31-1.59-.31-2.62v-15.43h-3.53v-3.02h3.53v-8.48h3.59v8.48h5.24v3.02h-5.24v14.61c0,.62,.04,1.15,.13,1.59s.26,.82,.51,1.1c.22,.29,.55,.51,.97,.64,.4,.13,.93,.2,1.56,.2,.35,0,.73-.02,1.1-.09,.37-.04,.68-.13,.93-.22v2.93c-.13,.04-.31,.07-.53,.11s-.46,.07-.73,.11l-.79,.07c-.26,0-.53,.02-.79,.02Z"/><path class="cls-3" d="M445.69,50.81h3.7v3.94h-3.7v-3.94Zm0,8.68h3.66v23.82h-3.66v-23.82Z"/><path class="cls-3" d="M463.36,83.82c-1.28,0-2.45-.26-3.55-.79s-2.07-1.3-2.89-2.36c-.82-1.04-1.45-2.34-1.94-3.88-.48-1.54-.71-3.35-.71-5.4s.24-3.99,.75-5.55c.48-1.54,1.17-2.84,2.03-3.86,.84-1.01,1.83-1.76,2.95-2.25s2.31-.75,3.57-.75c1.19,0,2.23,.2,3.11,.57,.88,.4,1.63,.9,2.27,1.54,.62,.66,1.15,1.41,1.56,2.27,.4,.86,.75,1.76,1.04,2.71l-3.33,.9c-.22-.75-.48-1.41-.75-2.01s-.59-1.1-.97-1.52-.82-.75-1.3-.97-1.06-.35-1.72-.35c-.77,0-1.5,.18-2.16,.53s-1.26,.9-1.76,1.65-.9,1.72-1.19,2.89c-.31,1.17-.44,2.56-.44,4.19,0,1.45,.11,2.75,.37,3.9,.24,1.15,.59,2.14,1.08,2.93,.46,.82,1.04,1.43,1.74,1.87,.68,.44,1.48,.64,2.36,.64,1.26,0,2.29-.37,3.11-1.17,.79-.79,1.43-2.03,1.9-3.75l3.2,.86c-.66,2.25-1.67,3.99-3.04,5.24-1.37,1.28-3.13,1.9-5.29,1.9Z"/><path class="cls-3" d="M482.89,83.82c-2.07,0-3.83-.44-5.29-1.32-1.48-.88-2.67-2.07-3.59-3.57l2.49-1.81c.79,1.21,1.74,2.14,2.86,2.75,1.1,.64,2.29,.95,3.57,.95,1.52,0,2.69-.31,3.53-.93,.82-.62,1.23-1.48,1.23-2.58,0-.73-.18-1.34-.53-1.85-.35-.48-.84-.93-1.41-1.3-.59-.35-1.26-.68-2.01-.97s-1.5-.57-2.27-.88c-.79-.29-1.54-.62-2.29-.99-.75-.35-1.41-.79-1.98-1.32-.59-.53-1.06-1.15-1.41-1.9s-.53-1.65-.53-2.71c0-.93,.18-1.81,.55-2.6s.9-1.45,1.56-2.03c.66-.55,1.45-.99,2.38-1.3s1.94-.48,3.04-.48c1.76,0,3.31,.4,4.61,1.17,1.3,.77,2.38,1.81,3.26,3.13l-2.45,1.9c-.62-.93-1.39-1.67-2.27-2.27-.9-.59-1.96-.9-3.2-.9-1.37,0-2.36,.31-3,.93-.66,.62-.97,1.37-.97,2.29,0,.75,.18,1.37,.53,1.85,.35,.51,.82,.95,1.39,1.3s1.23,.66,1.98,.93c.73,.26,1.48,.55,2.25,.84,.77,.31,1.52,.62,2.27,.97,.73,.35,1.39,.82,1.96,1.34s1.06,1.17,1.41,1.92c.35,.75,.53,1.67,.53,2.75s-.22,1.98-.64,2.82c-.44,.84-1.01,1.52-1.76,2.09s-1.61,1.01-2.6,1.32c-1.01,.31-2.07,.46-3.22,.46Z"/><path class="cls-3" d="M509.04,83.62c-1.81,0-3.2-.51-4.19-1.56-1.01-1.04-1.5-2.49-1.5-4.39,0-1.19,.24-2.29,.77-3.31,.51-1.01,1.3-1.96,2.38-2.8,1.08-.84,2.47-1.61,4.14-2.27s3.68-1.21,6.02-1.7v-1.43c0-1.37-.31-2.36-.88-3-.59-.64-1.5-.97-2.69-.97-.73,0-1.41,.09-2.07,.26s-1.28,.4-1.85,.68c-.59,.29-1.15,.62-1.65,1.01-.53,.4-1.01,.79-1.45,1.23l-2.05-2.2c1.23-1.23,2.64-2.25,4.23-3.04,1.56-.77,3.31-1.17,5.2-1.17,2.31,0,4.03,.64,5.13,1.87s1.65,3.02,1.65,5.31v11.28c0,1.45,.02,2.64,.11,3.57s.24,1.67,.46,2.29h-3.66c-.13-.46-.26-.93-.35-1.37s-.13-1.01-.13-1.7c-.97,1.06-2.12,1.9-3.39,2.49-1.28,.57-2.69,.88-4.23,.88Zm1.21-2.97c1.23,0,2.4-.29,3.5-.86s2.07-1.32,2.91-2.25v-7.32c-1.85,.4-3.39,.86-4.63,1.37-1.26,.51-2.27,1.06-3.02,1.63-.75,.59-1.3,1.23-1.61,1.9-.33,.66-.48,1.34-.48,2.05,0,1.21,.29,2.09,.88,2.64,.57,.57,1.39,.84,2.45,.84Z"/><path class="cls-3" d="M525.88,59.49h3.66v3.28c.4-.44,.86-.88,1.41-1.32,.53-.44,1.12-.86,1.78-1.23,.64-.35,1.32-.66,2.07-.88,.73-.22,1.48-.35,2.27-.35,1.92,0,3.37,.57,4.36,1.7,.99,1.12,1.5,2.78,1.5,4.94v17.7h-3.61v-16.92c0-1.41-.26-2.47-.77-3.15-.53-.68-1.39-1.04-2.6-1.04-.57,0-1.17,.11-1.74,.31-.59,.2-1.17,.46-1.72,.77-.57,.33-1.1,.71-1.59,1.1-.51,.42-.97,.84-1.37,1.23v17.7h-3.66v-23.82Z"/><path class="cls-3" d="M555.54,83.67c-1.17,0-2.25-.24-3.24-.71s-1.85-1.19-2.56-2.2c-.73-.99-1.3-2.27-1.7-3.81-.4-1.54-.59-3.39-.59-5.55s.2-4.01,.64-5.58c.42-1.54,.99-2.84,1.74-3.86s1.61-1.76,2.62-2.25,2.09-.73,3.26-.73c1.37,0,2.58,.31,3.64,.93s1.98,1.43,2.78,2.42v-12.43h3.59v27.55c0,1.45,.04,2.64,.13,3.57s.24,1.67,.46,2.29h-3.75c-.09-.18-.15-.42-.2-.68s-.09-.55-.13-.84-.07-.57-.09-.86c-.02-.26-.02-.51-.02-.73-.4,.46-.82,.9-1.26,1.32-.46,.42-.97,.79-1.5,1.1s-1.12,.57-1.76,.75-1.32,.29-2.07,.29Zm.99-3.02c.53,0,1.04-.09,1.54-.26s.99-.4,1.48-.71c.48-.29,.93-.64,1.37-1.04,.42-.4,.82-.79,1.21-1.23v-11.97c-.88-1.01-1.76-1.81-2.69-2.4s-1.92-.9-2.95-.9c-.82,0-1.54,.2-2.2,.55s-1.23,.93-1.7,1.67c-.48,.75-.84,1.72-1.1,2.91s-.37,2.58-.37,4.21,.13,2.97,.4,4.12,.62,2.09,1.1,2.84,1.06,1.32,1.72,1.67,1.39,.53,2.2,.53Z"/><path class="cls-3" d="M591.5,83.91c-1.85,0-3.5-.37-4.96-1.1-1.45-.73-2.71-1.83-3.72-3.28-1.04-1.45-1.83-3.28-2.38-5.44-.55-2.16-.82-4.69-.82-7.56s.26-5.24,.84-7.4c.57-2.14,1.37-3.94,2.42-5.4,1.04-1.45,2.29-2.56,3.77-3.31,1.45-.75,3.09-1.12,4.89-1.12,1.54,0,2.91,.26,4.08,.79,1.15,.53,2.14,1.26,2.97,2.18,.84,.93,1.52,2.05,2.05,3.33,.53,1.3,.93,2.71,1.23,4.25l-3.53,.64c-.26-1.26-.59-2.36-.97-3.33s-.84-1.76-1.39-2.42c-.55-.64-1.19-1.12-1.94-1.45s-1.63-.51-2.6-.51c-1.3,0-2.45,.33-3.44,.95-1.01,.62-1.85,1.52-2.53,2.69-.68,1.19-1.19,2.62-1.54,4.32s-.53,3.61-.53,5.75c0,2.27,.18,4.28,.53,6.02s.86,3.2,1.56,4.39c.68,1.19,1.54,2.09,2.56,2.71s2.16,.93,3.48,.93c.97,0,1.85-.15,2.62-.48,.75-.31,1.43-.82,2.01-1.48,.57-.66,1.08-1.52,1.52-2.53,.42-1.01,.77-2.23,1.08-3.64l3.46,.59c-.33,1.61-.79,3.09-1.37,4.41-.57,1.34-1.3,2.49-2.18,3.46s-1.9,1.74-3.09,2.27c-1.19,.51-2.56,.79-4.1,.79Z"/><path class="cls-3" d="M615.19,83.82c-1.32,0-2.56-.26-3.7-.79-1.15-.53-2.16-1.3-3-2.36-.86-1.04-1.52-2.34-2.01-3.88s-.73-3.35-.73-5.4,.24-3.83,.73-5.38,1.15-2.84,1.98-3.9c.84-1.04,1.85-1.81,3-2.34s2.38-.79,3.72-.79,2.56,.26,3.7,.79,2.14,1.3,2.97,2.34c.84,1.06,1.5,2.36,1.98,3.9s.73,3.35,.73,5.38-.24,3.86-.73,5.4c-.48,1.54-1.15,2.84-1.98,3.88-.84,1.06-1.83,1.83-2.97,2.36-1.15,.53-2.38,.79-3.7,.79Zm0-3.09c.93,0,1.76-.22,2.49-.66,.71-.44,1.3-1.06,1.78-1.87s.84-1.81,1.08-2.95,.37-2.45,.37-3.86c0-1.28-.13-2.47-.35-3.59s-.57-2.12-1.04-2.95-1.06-1.5-1.78-1.98c-.73-.48-1.59-.73-2.56-.73s-1.81,.22-2.51,.66c-.73,.44-1.32,1.08-1.81,1.9s-.86,1.78-1.1,2.93-.35,2.4-.35,3.77,.11,2.53,.33,3.66c.22,1.15,.55,2.14,1.01,2.97,.46,.84,1.06,1.5,1.78,1.98s1.61,.73,2.64,.73Z"/><path class="cls-3" d="M629.23,59.49h3.66v3.28c.42-.44,.9-.9,1.43-1.37,.53-.44,1.12-.86,1.74-1.21s1.26-.66,1.96-.88c.68-.22,1.39-.33,2.14-.33,.79,0,1.5,.09,2.12,.26s1.15,.42,1.59,.73c.44,.33,.79,.73,1.06,1.19,.26,.48,.48,1.01,.64,1.61,.44-.48,.95-.95,1.5-1.41,.53-.44,1.12-.86,1.74-1.21,.62-.35,1.3-.62,2.01-.84s1.43-.33,2.2-.33c1.92,0,3.37,.57,4.34,1.7s1.45,2.78,1.45,4.94v17.7h-3.61v-16.92c0-1.41-.26-2.47-.77-3.15s-1.37-1.04-2.58-1.04c-.57,0-1.1,.09-1.63,.26s-1.06,.42-1.56,.71c-.51,.31-.99,.64-1.45,1.04-.48,.4-.93,.79-1.34,1.19v17.92h-3.66v-16.92c0-.71-.07-1.32-.15-1.85-.11-.53-.29-.95-.53-1.3s-.57-.59-.99-.77-.93-.26-1.54-.26c-1.01,0-2.05,.33-3.06,.95-1.01,.62-2.03,1.43-3.02,2.42v17.74h-3.66v-23.82Z"/><path class="cls-3" d="M664.38,59.49h3.66v3.02c.35-.44,.75-.86,1.19-1.28s.95-.79,1.48-1.12,1.12-.59,1.78-.82c.64-.2,1.34-.31,2.09-.31,1.15,0,2.23,.24,3.22,.73s1.85,1.23,2.58,2.25c.71,1.01,1.28,2.29,1.67,3.83,.4,1.56,.62,3.42,.62,5.55s-.22,4.03-.64,5.58c-.44,1.54-1.01,2.82-1.76,3.81-.75,1.01-1.61,1.74-2.62,2.23-1.01,.46-2.12,.71-3.28,.71-1.39,0-2.6-.31-3.61-.86-1.01-.57-1.92-1.37-2.71-2.38v11.92h-3.66V59.49Zm9.3,21.15c.79,0,1.5-.18,2.16-.53s1.21-.9,1.7-1.65c.46-.75,.82-1.7,1.08-2.86s.4-2.58,.4-4.21-.13-2.95-.4-4.12c-.26-1.15-.64-2.12-1.12-2.89-.48-.75-1.04-1.32-1.7-1.7-.66-.35-1.37-.55-2.16-.55-.55,0-1.08,.11-1.59,.29-.53,.2-1.01,.44-1.5,.75s-.93,.66-1.34,1.06c-.44,.4-.82,.82-1.17,1.21v11.97c.86,1.06,1.74,1.85,2.67,2.4,.93,.57,1.92,.84,2.97,.84Z"/><path class="cls-3" d="M692.98,83.82c-1.94,0-3.39-.55-4.39-1.67-.99-1.12-1.48-2.78-1.48-4.98v-17.67h3.61v17.01c0,1.41,.26,2.45,.79,3.13s1.43,1.01,2.71,1.01c1.12,0,2.2-.31,3.26-.95,1.04-.64,2.05-1.45,3.02-2.47v-17.74h3.66v23.82h-3.66v-3.31c-.46,.51-.97,.99-1.5,1.45-.55,.46-1.15,.86-1.76,1.21-.64,.35-1.32,.64-2.03,.84s-1.45,.31-2.25,.31Z"/><path class="cls-3" d="M717.35,83.58c-1.1,0-2.03-.11-2.78-.29-.75-.2-1.37-.53-1.83-.97-.48-.44-.82-1.04-1.04-1.76-.22-.71-.31-1.59-.31-2.62v-15.43h-3.53v-3.02h3.53v-8.48h3.59v8.48h5.24v3.02h-5.24v14.61c0,.62,.04,1.15,.13,1.59s.26,.82,.51,1.1c.22,.29,.55,.51,.97,.64,.4,.13,.93,.2,1.56,.2,.35,0,.73-.02,1.1-.09,.37-.04,.68-.13,.93-.22v2.93c-.13,.04-.31,.07-.53,.11s-.46,.07-.73,.11l-.79,.07c-.26,0-.53,.02-.79,.02Z"/><path class="cls-3" d="M724.85,50.81h3.7v3.94h-3.7v-3.94Zm0,8.68h3.66v23.82h-3.66v-23.82Z"/><path class="cls-3" d="M734.56,59.49h3.66v3.28c.4-.44,.86-.88,1.41-1.32,.53-.44,1.12-.86,1.78-1.23,.64-.35,1.32-.66,2.07-.88,.73-.22,1.48-.35,2.27-.35,1.92,0,3.37,.57,4.36,1.7,.99,1.12,1.5,2.78,1.5,4.94v17.7h-3.61v-16.92c0-1.41-.26-2.47-.77-3.15-.53-.68-1.39-1.04-2.6-1.04-.57,0-1.17,.11-1.74,.31-.59,.2-1.17,.46-1.72,.77-.57,.33-1.1,.71-1.59,1.1-.51,.42-.97,.84-1.37,1.23v17.7h-3.66v-23.82Z"/><path class="cls-3" d="M770.66,61.39c.64-.53,1.39-1.01,2.27-1.41s1.72-.66,2.51-.82v3.44c-.55,0-1.12,.04-1.74,.13s-1.23,.26-1.85,.51c.33,.62,.59,1.3,.79,2.03,.18,.73,.29,1.5,.29,2.34,0,1.32-.22,2.51-.62,3.57-.42,1.06-.99,1.94-1.72,2.69s-1.59,1.3-2.6,1.7-2.09,.57-3.28,.57-2.31-.18-3.24-.53c-.42,.22-.75,.48-.99,.79-.26,.31-.37,.66-.37,1.06,0,.22,.02,.42,.11,.59,.07,.18,.2,.31,.42,.44,.2,.13,.48,.24,.84,.33s.82,.18,1.39,.24l3.7,.46c1.45,.18,2.71,.42,3.75,.73s1.87,.73,2.53,1.21,1.12,1.08,1.43,1.76c.31,.66,.46,1.45,.46,2.38,0,1.06-.26,2.01-.79,2.84s-1.23,1.54-2.16,2.12-2.03,1.01-3.28,1.32c-1.28,.31-2.64,.46-4.1,.46-1.72,0-3.15-.13-4.34-.4-1.19-.26-2.16-.66-2.91-1.15s-1.3-1.1-1.63-1.81c-.35-.71-.51-1.5-.51-2.38,0-1.21,.33-2.27,1.04-3.15,.68-.88,1.63-1.61,2.84-2.18-.64-.33-1.12-.75-1.48-1.23s-.51-1.06-.51-1.74,.24-1.39,.73-2.05,1.08-1.23,1.83-1.7c-1.01-.77-1.78-1.76-2.34-2.95s-.82-2.53-.82-4.01c0-1.28,.2-2.45,.62-3.5,.4-1.06,.97-1.96,1.72-2.71s1.63-1.34,2.64-1.76,2.14-.64,3.37-.64,2.38,.22,3.39,.62c1.01,.42,1.87,1.01,2.6,1.78Zm-5.95,12.03c.75,0,1.41-.13,2.01-.4s1.1-.66,1.52-1.17c.4-.48,.71-1.1,.93-1.81s.33-1.52,.33-2.4c0-1.76-.42-3.17-1.23-4.21s-2.01-1.56-3.59-1.56c-.77,0-1.45,.15-2.05,.42-.62,.29-1.12,.68-1.52,1.19-.42,.51-.73,1.1-.95,1.81s-.31,1.5-.31,2.36,.11,1.7,.33,2.4,.53,1.32,.95,1.81c.42,.51,.93,.9,1.54,1.17,.59,.26,1.28,.4,2.05,.4Zm-3.28,8.59c-1.04,.48-1.81,1.08-2.29,1.78-.51,.71-.75,1.48-.75,2.27,0,.62,.11,1.15,.33,1.61,.22,.44,.57,.82,1.08,1.12,.48,.31,1.15,.53,1.98,.68,.82,.15,1.83,.24,3.02,.24,.95,0,1.83-.09,2.62-.26s1.5-.4,2.07-.71,1.04-.71,1.37-1.15c.31-.46,.48-.97,.48-1.54,0-.48-.09-.93-.26-1.3s-.46-.71-.86-.99-.95-.51-1.63-.71c-.71-.18-1.56-.35-2.62-.48l-3.88-.48c-.13-.02-.24-.04-.33-.04-.11,0-.22,0-.33-.04Z"/></g></g><g><rect class="cls-2" x="9.23" width="74.24" height="87.04"/><polygon class="cls-1" points="54.8 20.99 54.8 25.6 58 25.6 58 51.33 51.22 51.33 51.22 17.41 54.8 17.41 54.8 12.8 37.9 12.8 37.9 17.41 41.49 17.41 41.49 51.33 34.7 51.33 34.7 25.6 37.9 25.6 37.9 20.99 22.03 20.99 22.03 25.6 25.62 25.6 25.62 55.42 31.5 61.31 41.49 61.31 41.49 68.22 37.9 68.22 37.9 74.24 54.8 74.24 54.8 68.22 51.22 68.22 51.22 61.31 61.2 61.31 67.09 55.42 67.09 25.6 70.67 25.6 70.67 20.99 54.8 20.99"/><g><path class="cls-3" d="M0,106.03H6.36v30.93H0v-30.93Z"/><path class="cls-3" d="M21.95,137.47c-1.88,0-3.49-.27-4.83-.75s-2.45-1.22-3.3-2.18c-.88-.94-1.51-2.12-1.92-3.51s-.61-2.96-.61-4.75v-20.24h6.36v19.85c0,1.08,.06,2.02,.22,2.79s.41,1.43,.78,1.94c.35,.51,.8,.88,1.35,1.12s1.22,.37,2.04,.37c1.57,0,2.69-.49,3.37-1.51,.67-1,1.02-2.55,1.02-4.67v-19.89h6.06v20.2c0,1.8-.2,3.39-.59,4.77-.41,1.39-1.02,2.57-1.88,3.53s-1.94,1.69-3.26,2.18c-1.35,.49-2.94,.75-4.79,.75Z"/><path class="cls-3" d="M37.19,106.03h9.36c1.43,0,2.77,.16,4.08,.47,1.31,.33,2.45,.86,3.45,1.63,.98,.78,1.77,1.8,2.37,3.06,.57,1.29,.88,2.88,.88,4.79,0,1.37-.14,2.57-.43,3.59s-.69,1.92-1.2,2.67c-.51,.78-1.1,1.41-1.8,1.9-.69,.51-1.45,.92-2.24,1.2-.82,.31-1.65,.53-2.53,.65-.9,.12-1.77,.18-2.65,.18h-3.02v10.77h-6.26v-30.93Zm9.45,15.14c1.63,0,2.82-.41,3.55-1.22,.71-.82,1.08-2.08,1.08-3.79s-.37-2.86-1.08-3.63-1.92-1.16-3.59-1.16h-3.14v9.81h3.18Z"/><path class="cls-3" d="M71.42,137.47c-1.88,0-3.49-.27-4.83-.75s-2.45-1.22-3.3-2.18c-.88-.94-1.51-2.12-1.92-3.51s-.61-2.96-.61-4.75v-20.24h6.36v19.85c0,1.08,.06,2.02,.22,2.79s.41,1.43,.78,1.94c.35,.51,.8,.88,1.35,1.12s1.22,.37,2.04,.37c1.57,0,2.69-.49,3.37-1.51,.67-1,1.02-2.55,1.02-4.67v-19.89h6.06v20.2c0,1.8-.2,3.39-.59,4.77-.41,1.39-1.02,2.57-1.88,3.53s-1.94,1.69-3.26,2.18c-1.35,.49-2.94,.75-4.79,.75Z"/><path class="cls-3" d="M86.9,106.03h6.36v30.93h-6.36v-30.93Z"/></g></g></g></svg>