<svg xmlns="http://www.w3.org/2000/svg" xmlns:xlink="http://www.w3.org/1999/xlink" width="1654.729" height="221.366" viewBox="0 0 1654.729 221.366">
  <defs>
    <linearGradient id="linear-gradient" x1="-0.017" x2="1.17" gradientUnits="objectBoundingBox">
      <stop offset="0" stop-color="#006298"/>
      <stop offset="0.735" stop-color="#a21d7a"/>
      <stop offset="1" stop-color="#900"/>
    </linearGradient>
    <clipPath id="clip-path">
      <rect id="Rectangle_15" data-name="Rectangle 15" width="571.38" height="212.366" fill="#0e1825"/>
    </clipPath>
    <clipPath id="clip-path-2">
      <rect id="Rectangle_15-2" data-name="Rectangle 15" width="571.38" height="212.366" transform="translate(0 0)" fill="#0e1825"/>
    </clipPath>
    <clipPath id="clip-path-3">
      <rect id="Rectangle_18" data-name="Rectangle 18" width="516.436" height="169.391" fill="#fff" stroke="#fff" stroke-width="11"/>
    </clipPath>
    <clipPath id="clip-path-4">
      <rect id="Rectangle_18-2" data-name="Rectangle 18" width="516.436" height="169.391" fill="none"/>
    </clipPath>
  </defs>
  <g id="Group_57" data-name="Group 57" transform="translate(-152.78 -351.196)">
    <g id="Group_56" data-name="Group 56">
      <rect id="AdobeStock_294184057" width="1654.729" height="8.524" transform="translate(152.78 422.445)" fill="url(#linear-gradient)"/>
      <g id="Group_46" data-name="Group 46" transform="translate(238 351.196)">
        <g id="Group_45" data-name="Group 45" transform="translate(0 0)" clip-path="url(#clip-path)">
          <text id="MEDIA_ARTS_" data-name="MEDIA ARTS &amp;" transform="translate(0 61.615)" fill="#0e1825" font-size="71" font-family="BentonSans-Black, Benton Sans" font-weight="800"><tspan x="0" y="0" letter-spacing="0.001em">M</tspan><tspan y="0">E</tspan><tspan y="0" letter-spacing="0.001em">D</tspan><tspan y="0">I</tspan><tspan y="0" letter-spacing="-0.028em">A</tspan><tspan y="0" letter-spacing="-0.029em"> </tspan><tspan y="0" letter-spacing="0.001em">A</tspan><tspan y="0" letter-spacing="-0.018em">RT</tspan><tspan y="0" letter-spacing="0.001em">S</tspan><tspan y="0" xml:space="preserve"> &amp;</tspan></text>
          <text id="SCIENCE" transform="translate(0 159.45)" fill="#0e1825" font-size="96" font-family="BentonSans-Black, Benton Sans" font-weight="800"><tspan x="0" y="0" letter-spacing="-0.008em">S</tspan><tspan y="0">CIENCE</tspan></text>
        </g>
      </g>
      <g id="Group_49" data-name="Group 49" transform="translate(229 360.196)" opacity="0.07">
        <g id="Group_45-2" data-name="Group 45" transform="translate(0 0)" clip-path="url(#clip-path-2)">
          <text id="MEDIA_ARTS_2" data-name="MEDIA ARTS &amp;" transform="translate(0 61.615)" fill="#0e1825" font-size="71" font-family="BentonSans-Black, Benton Sans" font-weight="800"><tspan x="0" y="0" letter-spacing="0.001em">M</tspan><tspan y="0">E</tspan><tspan y="0" letter-spacing="0.001em">D</tspan><tspan y="0">I</tspan><tspan y="0" letter-spacing="-0.028em">A</tspan><tspan y="0" letter-spacing="-0.029em"> </tspan><tspan y="0" letter-spacing="0.001em">A</tspan><tspan y="0" letter-spacing="-0.018em">RT</tspan><tspan y="0" letter-spacing="0.001em">S</tspan><tspan y="0" xml:space="preserve"> &amp;</tspan></text>
          <text id="SCIENCE-2" data-name="SCIENCE" transform="translate(0 159.45)" fill="#0e1825" font-size="96" font-family="BentonSans-Black, Benton Sans" font-weight="800"><tspan x="0" y="0" letter-spacing="-0.008em">S</tspan><tspan y="0">CIENCE</tspan></text>
        </g>
      </g>
      <g id="Group_55" data-name="Group 55" transform="translate(721.564 373.549)">
        <g id="Group_53" data-name="Group 53" transform="translate(0 0)" clip-path="url(#clip-path-3)">
          <path id="Path_61" data-name="Path 61" d="M80.122,120.663a6.883,6.883,0,0,0,.775-1.8,328.938,328.938,0,0,1,13.811-45.44C100.26,58.962,106.067,44.5,112.393,30.3a87.338,87.338,0,0,1,10.329-17.426,38.514,38.514,0,0,1,5.936-6.2A25.283,25.283,0,0,1,141.31,1.647c1.933-.258,3.87.387,5.807.775a2.811,2.811,0,0,1,1.033.646.85.85,0,0,1,.387,1.162c-.129.513-.646.513-1.033.384-3.744-1.03-6.581.9-9.422,2.711C132.4,10.94,128.4,16.1,124.913,21.785c-4.128,7.1-7.356,14.715-10.584,22.329-4.648,10.974-9.3,22.2-13.553,33.436A250.626,250.626,0,0,0,88.64,117.18c-.646,2.837-1.42,5.419-2.195,8.131-.258.9-.646,1.808-.9,2.711a2.989,2.989,0,0,1-2.321,1.808c-1.549.258-2.97.387-4.39.646a3.309,3.309,0,0,1-3.744-1.549,57.879,57.879,0,0,1-5.293-9.551,46.3,46.3,0,0,1-2.84-13.04c-1.288-13.941,0-27.752,2.195-41.567a26.917,26.917,0,0,0,.516-4.645c-.258.516-.516.9-.775,1.42-7.1,16.135-15.1,31.754-23.233,47.5a243.5,243.5,0,0,1-13.169,23.236,47.6,47.6,0,0,1-5.548,6.84,13.478,13.478,0,0,1-7.23,4c-1.937.258-3.873.516-5.939.775a8.731,8.731,0,0,1-7.485-2.582A15.188,15.188,0,0,1,2.67,135.51,41.376,41.376,0,0,1,.733,121.179c.387-13.166,4.519-25.428,10.455-37.048A31.439,31.439,0,0,1,20.1,73.29a10.521,10.521,0,0,1,8.389-2.453c1.42.129,2.84.387,4.39.516,2.97.258,4.648,1.937,5.552,4.648a10.488,10.488,0,0,1,0,5.29,1.333,1.333,0,0,1-1.678,1.291h-.775c-2.582-.258-2.711-.258-3.1-2.708a12.92,12.92,0,0,0-1.678-4.39c-1.033-1.549-1.42-1.549-2.84-.646a18.849,18.849,0,0,0-2.45,2.066A41.328,41.328,0,0,0,18.03,88.392c-3.615,8.263-6.714,16.781-7.876,25.948a46.7,46.7,0,0,0,.646,17.943,18.088,18.088,0,0,0,1.678,4.648,11.558,11.558,0,0,0,2.582,2.966c1.162.9,1.678.9,2.84,0a32.441,32.441,0,0,0,5.035-5.29,118.953,118.953,0,0,0,10.455-16.135c5.81-10.716,11.1-21.558,16.394-32.532,4.777-9.809,9.3-19.75,13.686-29.689,4.128-9.167,8-18.588,11.617-28.143,1.549-4.131,3.486-8.131,5.035-12.391.387-1.291.775-1.42,2.195-1.291,1.678.258,3.354.646,5.032.9,1.291.258,1.678.9,1.549,2.195a38.8,38.8,0,0,1-.9,4.131A290.233,290.233,0,0,0,80.51,56.25c-1.42,9.034-2.711,18.2-3.486,27.365a128.6,128.6,0,0,0-.387,21.171c.387,4.648.9,9.425,2.582,13.815A4.819,4.819,0,0,0,80.122,120.663Zm44.94-17.3h-1.42c-5.807.129-9.164-3.225-10.326-8.776a25.942,25.942,0,0,1,.516-11.362,48.3,48.3,0,0,1,11.487-22.2,16.835,16.835,0,0,1,8.134-5.423,9.412,9.412,0,0,1,5.939.646,31.351,31.351,0,0,0,2.966,1.42c4.131,1.549,6.455,5.807,5.293,10.971a16.207,16.207,0,0,1-2.969,6.2A26.313,26.313,0,0,1,133.2,83.1a16.971,16.971,0,0,1-9.812.646c-1.8-.387-1.933-.258-2.321,1.42a24.315,24.315,0,0,0-.646,9.167,8.6,8.6,0,0,0,2.579,5.81,3.347,3.347,0,0,0,4,.771,22.439,22.439,0,0,0,5.552-2.837A115.909,115.909,0,0,0,146.491,87.1c2.84-2.453,5.681-4.906,8.263-7.485a1.322,1.322,0,0,1,.775-.646,1.367,1.367,0,0,1,1.678.129c.646.516.129,1.033-.258,1.549a13.652,13.652,0,0,1-1.291,1.546,168.555,168.555,0,0,1-18.072,16.526,28.625,28.625,0,0,1-5.423,3.225A14.035,14.035,0,0,1,125.062,103.366Zm15.493-40.921v-.771c-.129-2.324-.646-2.582-2.711-1.678a17.125,17.125,0,0,0-5.293,3.741A36.8,36.8,0,0,0,123,78.712c-.255.516-.642,1.162-.255,1.549.384.646,1.159.258,1.8,0,5.939-1.42,10.329-5.164,13.556-10.329A13.986,13.986,0,0,0,140.555,62.444Zm23.756,35.373a3.165,3.165,0,0,0,1.678-1.42q6-9.3,11.232-18.976c.9-1.549,1.162-3.486,1.808-5.164,1.162-3.1,1.42-3.1,4.516-2.453l1.549.387c1.678.516,2.066.9,1.678,2.711-.516,3.357-1.162,6.714-1.937,9.938a82.925,82.925,0,0,0-1.291,9.683,12.415,12.415,0,0,0,.258,4.39c.516,2.066,1.033,2.195,2.582.775a33.064,33.064,0,0,0,6.714-8c4.906-8,8.392-16.523,9.551-25.819.516-3.483,1.033-6.84,0-10.325-.384-1.291,0-1.549,1.42-1.291a4.118,4.118,0,0,1,3.744,2.84,12.855,12.855,0,0,1,.775,7.614,71.064,71.064,0,0,1-13.424,32.145,24.889,24.889,0,0,1-3.486,3.873,11.132,11.132,0,0,1-5.939,2.837,29.983,29.983,0,0,0-3.354.516c-2.711.387-4.39-.516-5.681-2.966a17.659,17.659,0,0,1-1.291-8.521c0-.387.258-.775,0-1.291-.387.646-.775,1.291-1.033,1.808a57.808,57.808,0,0,1-4.132,7.23,17.172,17.172,0,0,1-2.066,2.45,4.954,4.954,0,0,1-3.228,1.42,34.194,34.194,0,0,1-3.612.387c-2.066,0-2.84-.516-3.486-2.579a17.024,17.024,0,0,1-.387-7.23A76.38,76.38,0,0,1,161.087,76c1.808-5.552,3.483-11.232,5.807-16.523l1.549-3.486a1.48,1.48,0,0,1,2.066-.9c1.291.516,2.453,1.033,3.744,1.549a1.7,1.7,0,0,1,1.162,2.066l-.775,2.711c-2.066,6.194-4.39,12.262-6.2,18.588-1.291,4.386-2.582,8.776-3.486,13.3C164.7,94.718,164.569,96.139,164.311,97.817Zm55.9-26.077a9.959,9.959,0,0,0,1.033,4.777,51.47,51.47,0,0,0,3.1,5.29,1.99,1.99,0,0,0,2.582,1.033c3.357-.775,6.714-1.42,10.067-2.063,2.582-.516,5.164-1.162,7.747-1.678.9-.129,1.937-.258,2.582.775.387.775.258,1.162-.516,1.546-.516.129-1.033.258-1.678.387-5.423,1.162-10.842,2.453-16.265,3.615a5.593,5.593,0,0,1-.646.129c-.775.258-1.033.516-.646,1.291a10.294,10.294,0,0,1,1.033,2.066c1.291,2.582,2.066,5.164,1.291,8.134a6.591,6.591,0,0,1-5.552,5.161,39.661,39.661,0,0,1-6.843.646,7.01,7.01,0,0,1-4.386-1.549,27.426,27.426,0,0,1-7.359-8.518,8.967,8.967,0,0,1-.646-1.678c-.646-2.066.129-3.357,2.195-3.873,2.969-.775,6.068-1.42,9.167-2.066.384-.129.9-.258,1.417-.387s.646-.516.387-.9-.516-.9-.775-1.291a38.856,38.856,0,0,1-3.354-5.936c-2.711-6.068-1.291-12.007,3.87-16.265,2.582-2.066,5.293-4,8.65-4.777a9.483,9.483,0,0,1,4.648.258,46.394,46.394,0,0,1,5.936,2.195c3.615,1.549,5.035,4.645,3.873,8.518a15.477,15.477,0,0,1-3.744,6.455,3.949,3.949,0,0,1-4.774.9,1.179,1.179,0,0,1-.646-1.549,6.1,6.1,0,0,1,.9-1.549,20.623,20.623,0,0,0,2.066-6.2,5.837,5.837,0,0,0-.516-3.87,1.951,1.951,0,0,0-2.582-1.42,17.929,17.929,0,0,0-3.357,1.291,27.972,27.972,0,0,0-6.068,5.032A8.593,8.593,0,0,0,220.215,71.74Zm2.97,23.236a18.722,18.722,0,0,0-2.066-6.585,1.716,1.716,0,0,0-2.195-.9c-2.708.516-5.548,1.162-8.26,1.678-1.42.258-1.549.516-.9,1.937a17.77,17.77,0,0,0,3.1,3.873,17.313,17.313,0,0,0,5.936,4.648c1.549.775,2.324.516,3.228-.9A7.945,7.945,0,0,0,223.185,94.977Zm25.05-.129a91.806,91.806,0,0,1,1.678-9.812c1.549-6.452,3.357-12.779,5.423-19.1,2.708-8.647,5.548-17.3,8.389-25.944,1.937-6.068,4.261-12.007,6.455-17.814,1.291-3.357,1.42-3.357,4.648-1.808.387.258.775.387,1.162.646a1.651,1.651,0,0,1,.771,1.808c-.126.646-.384,1.288-.513,1.933-3.873,11.749-7.747,23.236-11.62,34.856-3.228,9.422-6.714,18.847-9.034,28.656a66.05,66.05,0,0,0-1.291,6.972,9.77,9.77,0,0,0,0,3.357c.129.387,0,1.033.516,1.162.516.258.775-.387,1.033-.646,1.033-1.42,2.192-2.711,3.1-4.131,3.486-4.906,6.843-9.812,10.329-14.715l1.162-1.549a1.483,1.483,0,0,1,1.42-.775c.9,0,1.291.387.9,1.291-.9,1.549-1.808,2.966-2.711,4.386-2.582,4.131-5.164,8.263-7.617,12.394a32.493,32.493,0,0,1-4,5.419c-1.933,2.066-4.386,1.937-6.84,1.42a3.255,3.255,0,0,1-2.324-2.324A16.4,16.4,0,0,1,248.235,94.848Zm37.309,8.518h-1.42c-5.807.129-9.163-3.225-10.325-8.776a25.941,25.941,0,0,1,.516-11.362,48.3,48.3,0,0,1,11.487-22.2,16.835,16.835,0,0,1,8.134-5.423,9.412,9.412,0,0,1,5.939.646,31.347,31.347,0,0,0,2.966,1.42c4.131,1.549,6.455,5.807,5.293,10.971a16.207,16.207,0,0,1-2.97,6.2,26.331,26.331,0,0,1-11.487,8.26,16.971,16.971,0,0,1-9.812.646c-1.8-.387-1.933-.258-2.321,1.42a24.315,24.315,0,0,0-.646,9.167,8.6,8.6,0,0,0,2.579,5.81,3.347,3.347,0,0,0,4,.771,22.439,22.439,0,0,0,5.552-2.837A115.911,115.911,0,0,0,306.973,87.1c2.84-2.453,5.681-4.906,8.263-7.485a1.322,1.322,0,0,1,.775-.646,1.367,1.367,0,0,1,1.678.129c.646.516.129,1.033-.258,1.549a13.649,13.649,0,0,1-1.291,1.546,168.554,168.554,0,0,1-18.072,16.526,28.624,28.624,0,0,1-5.423,3.225A14.035,14.035,0,0,1,285.544,103.366Zm15.493-40.921v-.771c-.129-2.324-.646-2.582-2.711-1.678a17.125,17.125,0,0,0-5.293,3.741,36.8,36.8,0,0,0-9.554,14.977c-.258.516-.646,1.162-.258,1.549.387.646,1.162.258,1.808,0,5.939-1.42,10.329-5.164,13.556-10.329A13.986,13.986,0,0,0,301.038,62.444Zm39.636-20.522a8.171,8.171,0,0,0,3.1-.258c4.39-.775,8.909-1.808,13.3-2.84a2.769,2.769,0,0,0,2.195-2.066c1.291-3.228,2.711-6.455,4.128-9.683.129-.387.387-.775.516-1.162a2.1,2.1,0,0,1,2.453-1.162,15.01,15.01,0,0,0,2.324.516c1.549.387,1.807.646,1.291,2.195-.516,1.937-1.162,3.873-1.807,5.81a8.9,8.9,0,0,1-.387,1.033c-.129.516-.387.9-.129,1.291.387.516.9.129,1.42,0,6.2-1.678,12.394-3.486,18.589-5.293a184.6,184.6,0,0,1,23.624-5.552,52.409,52.409,0,0,1,14.2-.258,20.675,20.675,0,0,1,5.035,1.42,5.543,5.543,0,0,1,2.453,1.808c1.42,1.678,2.711,3.486,4.131,5.293.775,1.162.775,1.808.258,2.324-.646.516-1.162.387-2.195-.9a5.133,5.133,0,0,0-2.84-2.066,39.216,39.216,0,0,0-13.941-1.42c-9.941.646-19.492,3.1-29.175,5.681l-22.462,5.81a3.387,3.387,0,0,0-2.582,2.321,322.688,322.688,0,0,0-11.487,36.406,98.052,98.052,0,0,0-2.711,20.264,17.863,17.863,0,0,0,3.615,10.716,8.538,8.538,0,0,0,4.261,3.1,1.561,1.561,0,0,0,1.808-.129c2.324-1.808,4.386-3.744,5.032-6.714a2.631,2.631,0,0,1,2.066-1.937c1.42-.258,2.84-.516,4.132-.775,1.807-.258,2.453.646,1.678,2.066-2.84,5.035-6.326,9.167-12.52,10.071-1.291.129-2.582.516-3.873.646A9.845,9.845,0,0,1,347,114.856a17.913,17.913,0,0,1-4.645-11.749c-.516-8,1.03-16.006,2.837-23.75.258-1.162.516-2.324.9-3.873a3.062,3.062,0,0,0-1.162,1.549c-2.837,5.807-6.065,11.358-9.422,16.781a40.284,40.284,0,0,1-4.39,6.068,5.959,5.959,0,0,1-5.293,2.579,4.874,4.874,0,0,0-1.933,0,3.665,3.665,0,0,1-3.873-2.45,16.1,16.1,0,0,1-1.549-8.134c.129-5.81,1.678-11.358,3.228-16.91,1.937-7.359,4.9-14.457,7.356-21.687.258-.9.646-1.937.9-2.84.9-2.324.9-2.324-1.42-2.453a39.657,39.657,0,0,1-10.971-1.678,21.389,21.389,0,0,1-8.909-4.774,9.858,9.858,0,0,1-1.162-1.162.823.823,0,0,1,0-.775c.129-.258.387-.258.646-.129a.671.671,0,0,1,.516.258c4.39,2.582,9.167,3.1,13.944,3.483,2.708.129,5.29.129,7.872,0,2.066,0,2.195,0,2.84-2.063,2.195-6.972,5.164-13.686,8-20.525a2.6,2.6,0,0,0,.516-1.033c.775-1.678,1.162-1.808,2.966-1.162a9.806,9.806,0,0,0,1.42.516c1.808.775,2.066,1.162,1.42,2.97-1.033,3.1-2.195,6.065-3.228,9.164l-3.483,9.3C340.8,40.89,340.416,41.277,340.674,41.922Zm14.844,3.354a6.04,6.04,0,0,0-2.195.258A107.6,107.6,0,0,1,340.416,47.6a3.052,3.052,0,0,0-3.1,2.453c-1.549,4.777-3.357,9.554-5.035,14.457-2.97,8.521-5.681,17.168-6.843,26.206a18.776,18.776,0,0,0,.129,7.1c.387,1.162.646,1.162,1.42.387a45.868,45.868,0,0,0,2.969-4c9.941-14.973,17.685-30.983,25.173-47.118A2.136,2.136,0,0,0,355.518,45.276Zm23.372,58.089h-1.42c-5.807.129-9.164-3.225-10.326-8.776a25.941,25.941,0,0,1,.516-11.362,48.3,48.3,0,0,1,11.487-22.2,16.835,16.835,0,0,1,8.134-5.423,9.412,9.412,0,0,1,5.939.646,31.35,31.35,0,0,0,2.966,1.42c4.132,1.549,6.455,5.807,5.293,10.971a16.206,16.206,0,0,1-2.97,6.2,26.313,26.313,0,0,1-11.487,8.26,16.971,16.971,0,0,1-9.812.646c-1.8-.387-1.933-.258-2.321,1.42a24.315,24.315,0,0,0-.646,9.167,8.591,8.591,0,0,0,2.582,5.81,3.342,3.342,0,0,0,4,.771,22.439,22.439,0,0,0,5.552-2.837A115.654,115.654,0,0,0,400.319,87.1c2.84-2.453,5.681-4.906,8.263-7.485a1.322,1.322,0,0,1,.775-.646,1.367,1.367,0,0,1,1.678.129c.646.516.129,1.033-.258,1.549a13.656,13.656,0,0,1-1.291,1.546,168.556,168.556,0,0,1-18.072,16.526,28.626,28.626,0,0,1-5.423,3.225A14.036,14.036,0,0,1,378.89,103.366Zm15.493-40.921v-.771c-.129-2.324-.646-2.582-2.711-1.678a17.125,17.125,0,0,0-5.293,3.741,36.761,36.761,0,0,0-9.551,14.977c-.258.516-.646,1.162-.258,1.549.384.646,1.159.258,1.8,0,5.939-1.42,10.329-5.164,13.556-10.329A13.986,13.986,0,0,0,394.383,62.444Zm29.308,11.491a98.569,98.569,0,0,1,6.455-8.521c2.84-3.354,5.81-6.581,9.809-8.647a16.064,16.064,0,0,1,2.582-1.291,6.217,6.217,0,0,1,5.035,0c.775.387,1.678.646,2.453,1.033,1.808.646,3.1,3.486,2.582,5.293q-.387.963-1.162.771c-1.162-.258-2.453-.513-2.969-1.8-.9-2.453-1.291-2.582-4.261-1.291a32.106,32.106,0,0,0-10.325,8.26,117.157,117.157,0,0,0-17.943,27.5c-.775,1.678-1.549,3.486-2.195,5.29a2.382,2.382,0,0,1-2.582,1.937c-3.357.258-3.744-.129-2.97-3.354.646-3.1,1.678-6.068,2.582-9.167,3.486-10.971,7.23-21.945,10.971-32.787.775-1.937,1.033-2.066,2.97-1.162a7.9,7.9,0,0,1,1.549.646c1.678.775,1.808,1.162,1.549,2.97a70.477,70.477,0,0,1-2.582,8.905c-.775,1.678-1.291,3.486-1.937,5.293C423.433,73.806,423.562,73.935,423.691,73.935Z" transform="translate(1.591 3.537)" fill="#fff" stroke="#fff" stroke-width="11"/>
        </g>
      </g>
      <g id="Group_54" data-name="Group 54" transform="translate(721.564 373.11)">
        <g id="Group_53-2" data-name="Group 53" transform="translate(0 0)" clip-path="url(#clip-path-4)">
          <path id="Path_61-2" data-name="Path 61" d="M80.122,120.663a6.883,6.883,0,0,0,.775-1.8,328.938,328.938,0,0,1,13.811-45.44C100.26,58.962,106.067,44.5,112.393,30.3a87.338,87.338,0,0,1,10.329-17.426,38.514,38.514,0,0,1,5.936-6.2A25.283,25.283,0,0,1,141.31,1.647c1.933-.258,3.87.387,5.807.775a2.811,2.811,0,0,1,1.033.646.85.85,0,0,1,.387,1.162c-.129.513-.646.513-1.033.384-3.744-1.03-6.581.9-9.422,2.711C132.4,10.94,128.4,16.1,124.913,21.785c-4.128,7.1-7.356,14.715-10.584,22.329-4.648,10.974-9.3,22.2-13.553,33.436A250.626,250.626,0,0,0,88.64,117.18c-.646,2.837-1.42,5.419-2.195,8.131-.258.9-.646,1.808-.9,2.711a2.989,2.989,0,0,1-2.321,1.808c-1.549.258-2.97.387-4.39.646a3.309,3.309,0,0,1-3.744-1.549,57.879,57.879,0,0,1-5.293-9.551,46.3,46.3,0,0,1-2.84-13.04c-1.288-13.941,0-27.752,2.195-41.567a26.917,26.917,0,0,0,.516-4.645c-.258.516-.516.9-.775,1.42-7.1,16.135-15.1,31.754-23.233,47.5a243.5,243.5,0,0,1-13.169,23.236,47.6,47.6,0,0,1-5.548,6.84,13.478,13.478,0,0,1-7.23,4c-1.937.258-3.873.516-5.939.775a8.731,8.731,0,0,1-7.485-2.582A15.188,15.188,0,0,1,2.67,135.51,41.376,41.376,0,0,1,.733,121.179c.387-13.166,4.519-25.428,10.455-37.048A31.439,31.439,0,0,1,20.1,73.29a10.521,10.521,0,0,1,8.389-2.453c1.42.129,2.84.387,4.39.516,2.97.258,4.648,1.937,5.552,4.648a10.488,10.488,0,0,1,0,5.29,1.333,1.333,0,0,1-1.678,1.291h-.775c-2.582-.258-2.711-.258-3.1-2.708a12.92,12.92,0,0,0-1.678-4.39c-1.033-1.549-1.42-1.549-2.84-.646a18.849,18.849,0,0,0-2.45,2.066A41.328,41.328,0,0,0,18.03,88.392c-3.615,8.263-6.714,16.781-7.876,25.948a46.7,46.7,0,0,0,.646,17.943,18.088,18.088,0,0,0,1.678,4.648,11.558,11.558,0,0,0,2.582,2.966c1.162.9,1.678.9,2.84,0a32.441,32.441,0,0,0,5.035-5.29,118.953,118.953,0,0,0,10.455-16.135c5.81-10.716,11.1-21.558,16.394-32.532,4.777-9.809,9.3-19.75,13.686-29.689,4.128-9.167,8-18.588,11.617-28.143,1.549-4.131,3.486-8.131,5.035-12.391.387-1.291.775-1.42,2.195-1.291,1.678.258,3.354.646,5.032.9,1.291.258,1.678.9,1.549,2.195a38.8,38.8,0,0,1-.9,4.131A290.233,290.233,0,0,0,80.51,56.25c-1.42,9.034-2.711,18.2-3.486,27.365a128.6,128.6,0,0,0-.387,21.171c.387,4.648.9,9.425,2.582,13.815A4.819,4.819,0,0,0,80.122,120.663Zm44.94-17.3h-1.42c-5.807.129-9.164-3.225-10.326-8.776a25.942,25.942,0,0,1,.516-11.362,48.3,48.3,0,0,1,11.487-22.2,16.835,16.835,0,0,1,8.134-5.423,9.412,9.412,0,0,1,5.939.646,31.351,31.351,0,0,0,2.966,1.42c4.131,1.549,6.455,5.807,5.293,10.971a16.207,16.207,0,0,1-2.969,6.2A26.313,26.313,0,0,1,133.2,83.1a16.971,16.971,0,0,1-9.812.646c-1.8-.387-1.933-.258-2.321,1.42a24.315,24.315,0,0,0-.646,9.167,8.6,8.6,0,0,0,2.579,5.81,3.347,3.347,0,0,0,4,.771,22.439,22.439,0,0,0,5.552-2.837A115.909,115.909,0,0,0,146.491,87.1c2.84-2.453,5.681-4.906,8.263-7.485a1.322,1.322,0,0,1,.775-.646,1.367,1.367,0,0,1,1.678.129c.646.516.129,1.033-.258,1.549a13.652,13.652,0,0,1-1.291,1.546,168.555,168.555,0,0,1-18.072,16.526,28.625,28.625,0,0,1-5.423,3.225A14.035,14.035,0,0,1,125.062,103.366Zm15.493-40.921v-.771c-.129-2.324-.646-2.582-2.711-1.678a17.125,17.125,0,0,0-5.293,3.741A36.8,36.8,0,0,0,123,78.712c-.255.516-.642,1.162-.255,1.549.384.646,1.159.258,1.8,0,5.939-1.42,10.329-5.164,13.556-10.329A13.986,13.986,0,0,0,140.555,62.444Zm23.756,35.373a3.165,3.165,0,0,0,1.678-1.42q6-9.3,11.232-18.976c.9-1.549,1.162-3.486,1.808-5.164,1.162-3.1,1.42-3.1,4.516-2.453l1.549.387c1.678.516,2.066.9,1.678,2.711-.516,3.357-1.162,6.714-1.937,9.938a82.925,82.925,0,0,0-1.291,9.683,12.415,12.415,0,0,0,.258,4.39c.516,2.066,1.033,2.195,2.582.775a33.064,33.064,0,0,0,6.714-8c4.906-8,8.392-16.523,9.551-25.819.516-3.483,1.033-6.84,0-10.325-.384-1.291,0-1.549,1.42-1.291a4.118,4.118,0,0,1,3.744,2.84,12.855,12.855,0,0,1,.775,7.614,71.064,71.064,0,0,1-13.424,32.145,24.889,24.889,0,0,1-3.486,3.873,11.132,11.132,0,0,1-5.939,2.837,29.983,29.983,0,0,0-3.354.516c-2.711.387-4.39-.516-5.681-2.966a17.659,17.659,0,0,1-1.291-8.521c0-.387.258-.775,0-1.291-.387.646-.775,1.291-1.033,1.808a57.808,57.808,0,0,1-4.132,7.23,17.172,17.172,0,0,1-2.066,2.45,4.954,4.954,0,0,1-3.228,1.42,34.194,34.194,0,0,1-3.612.387c-2.066,0-2.84-.516-3.486-2.579a17.024,17.024,0,0,1-.387-7.23A76.38,76.38,0,0,1,161.087,76c1.808-5.552,3.483-11.232,5.807-16.523l1.549-3.486a1.48,1.48,0,0,1,2.066-.9c1.291.516,2.453,1.033,3.744,1.549a1.7,1.7,0,0,1,1.162,2.066l-.775,2.711c-2.066,6.194-4.39,12.262-6.2,18.588-1.291,4.386-2.582,8.776-3.486,13.3C164.7,94.718,164.569,96.139,164.311,97.817Zm55.9-26.077a9.959,9.959,0,0,0,1.033,4.777,51.47,51.47,0,0,0,3.1,5.29,1.99,1.99,0,0,0,2.582,1.033c3.357-.775,6.714-1.42,10.067-2.063,2.582-.516,5.164-1.162,7.747-1.678.9-.129,1.937-.258,2.582.775.387.775.258,1.162-.516,1.546-.516.129-1.033.258-1.678.387-5.423,1.162-10.842,2.453-16.265,3.615a5.593,5.593,0,0,1-.646.129c-.775.258-1.033.516-.646,1.291a10.294,10.294,0,0,1,1.033,2.066c1.291,2.582,2.066,5.164,1.291,8.134a6.591,6.591,0,0,1-5.552,5.161,39.661,39.661,0,0,1-6.843.646,7.01,7.01,0,0,1-4.386-1.549,27.426,27.426,0,0,1-7.359-8.518,8.967,8.967,0,0,1-.646-1.678c-.646-2.066.129-3.357,2.195-3.873,2.969-.775,6.068-1.42,9.167-2.066.384-.129.9-.258,1.417-.387s.646-.516.387-.9-.516-.9-.775-1.291a38.856,38.856,0,0,1-3.354-5.936c-2.711-6.068-1.291-12.007,3.87-16.265,2.582-2.066,5.293-4,8.65-4.777a9.483,9.483,0,0,1,4.648.258,46.394,46.394,0,0,1,5.936,2.195c3.615,1.549,5.035,4.645,3.873,8.518a15.477,15.477,0,0,1-3.744,6.455,3.949,3.949,0,0,1-4.774.9,1.179,1.179,0,0,1-.646-1.549,6.1,6.1,0,0,1,.9-1.549,20.623,20.623,0,0,0,2.066-6.2,5.837,5.837,0,0,0-.516-3.87,1.951,1.951,0,0,0-2.582-1.42,17.929,17.929,0,0,0-3.357,1.291,27.972,27.972,0,0,0-6.068,5.032A8.593,8.593,0,0,0,220.215,71.74Zm2.97,23.236a18.722,18.722,0,0,0-2.066-6.585,1.716,1.716,0,0,0-2.195-.9c-2.708.516-5.548,1.162-8.26,1.678-1.42.258-1.549.516-.9,1.937a17.77,17.77,0,0,0,3.1,3.873,17.313,17.313,0,0,0,5.936,4.648c1.549.775,2.324.516,3.228-.9A7.945,7.945,0,0,0,223.185,94.977Zm25.05-.129a91.806,91.806,0,0,1,1.678-9.812c1.549-6.452,3.357-12.779,5.423-19.1,2.708-8.647,5.548-17.3,8.389-25.944,1.937-6.068,4.261-12.007,6.455-17.814,1.291-3.357,1.42-3.357,4.648-1.808.387.258.775.387,1.162.646a1.651,1.651,0,0,1,.771,1.808c-.126.646-.384,1.288-.513,1.933-3.873,11.749-7.747,23.236-11.62,34.856-3.228,9.422-6.714,18.847-9.034,28.656a66.05,66.05,0,0,0-1.291,6.972,9.77,9.77,0,0,0,0,3.357c.129.387,0,1.033.516,1.162.516.258.775-.387,1.033-.646,1.033-1.42,2.192-2.711,3.1-4.131,3.486-4.906,6.843-9.812,10.329-14.715l1.162-1.549a1.483,1.483,0,0,1,1.42-.775c.9,0,1.291.387.9,1.291-.9,1.549-1.808,2.966-2.711,4.386-2.582,4.131-5.164,8.263-7.617,12.394a32.493,32.493,0,0,1-4,5.419c-1.933,2.066-4.386,1.937-6.84,1.42a3.255,3.255,0,0,1-2.324-2.324A16.4,16.4,0,0,1,248.235,94.848Zm37.309,8.518h-1.42c-5.807.129-9.163-3.225-10.325-8.776a25.941,25.941,0,0,1,.516-11.362,48.3,48.3,0,0,1,11.487-22.2,16.835,16.835,0,0,1,8.134-5.423,9.412,9.412,0,0,1,5.939.646,31.347,31.347,0,0,0,2.966,1.42c4.131,1.549,6.455,5.807,5.293,10.971a16.207,16.207,0,0,1-2.97,6.2,26.331,26.331,0,0,1-11.487,8.26,16.971,16.971,0,0,1-9.812.646c-1.8-.387-1.933-.258-2.321,1.42a24.315,24.315,0,0,0-.646,9.167,8.6,8.6,0,0,0,2.579,5.81,3.347,3.347,0,0,0,4,.771,22.439,22.439,0,0,0,5.552-2.837A115.911,115.911,0,0,0,306.973,87.1c2.84-2.453,5.681-4.906,8.263-7.485a1.322,1.322,0,0,1,.775-.646,1.367,1.367,0,0,1,1.678.129c.646.516.129,1.033-.258,1.549a13.649,13.649,0,0,1-1.291,1.546,168.554,168.554,0,0,1-18.072,16.526,28.624,28.624,0,0,1-5.423,3.225A14.035,14.035,0,0,1,285.544,103.366Zm15.493-40.921v-.771c-.129-2.324-.646-2.582-2.711-1.678a17.125,17.125,0,0,0-5.293,3.741,36.8,36.8,0,0,0-9.554,14.977c-.258.516-.646,1.162-.258,1.549.387.646,1.162.258,1.808,0,5.939-1.42,10.329-5.164,13.556-10.329A13.986,13.986,0,0,0,301.038,62.444Zm39.636-20.522a8.171,8.171,0,0,0,3.1-.258c4.39-.775,8.909-1.808,13.3-2.84a2.769,2.769,0,0,0,2.195-2.066c1.291-3.228,2.711-6.455,4.128-9.683.129-.387.387-.775.516-1.162a2.1,2.1,0,0,1,2.453-1.162,15.01,15.01,0,0,0,2.324.516c1.549.387,1.807.646,1.291,2.195-.516,1.937-1.162,3.873-1.807,5.81a8.9,8.9,0,0,1-.387,1.033c-.129.516-.387.9-.129,1.291.387.516.9.129,1.42,0,6.2-1.678,12.394-3.486,18.589-5.293a184.6,184.6,0,0,1,23.624-5.552,52.409,52.409,0,0,1,14.2-.258,20.675,20.675,0,0,1,5.035,1.42,5.543,5.543,0,0,1,2.453,1.808c1.42,1.678,2.711,3.486,4.131,5.293.775,1.162.775,1.808.258,2.324-.646.516-1.162.387-2.195-.9a5.133,5.133,0,0,0-2.84-2.066,39.216,39.216,0,0,0-13.941-1.42c-9.941.646-19.492,3.1-29.175,5.681l-22.462,5.81a3.387,3.387,0,0,0-2.582,2.321,322.688,322.688,0,0,0-11.487,36.406,98.052,98.052,0,0,0-2.711,20.264,17.863,17.863,0,0,0,3.615,10.716,8.538,8.538,0,0,0,4.261,3.1,1.561,1.561,0,0,0,1.808-.129c2.324-1.808,4.386-3.744,5.032-6.714a2.631,2.631,0,0,1,2.066-1.937c1.42-.258,2.84-.516,4.132-.775,1.807-.258,2.453.646,1.678,2.066-2.84,5.035-6.326,9.167-12.52,10.071-1.291.129-2.582.516-3.873.646A9.845,9.845,0,0,1,347,114.856a17.913,17.913,0,0,1-4.645-11.749c-.516-8,1.03-16.006,2.837-23.75.258-1.162.516-2.324.9-3.873a3.062,3.062,0,0,0-1.162,1.549c-2.837,5.807-6.065,11.358-9.422,16.781a40.284,40.284,0,0,1-4.39,6.068,5.959,5.959,0,0,1-5.293,2.579,4.874,4.874,0,0,0-1.933,0,3.665,3.665,0,0,1-3.873-2.45,16.1,16.1,0,0,1-1.549-8.134c.129-5.81,1.678-11.358,3.228-16.91,1.937-7.359,4.9-14.457,7.356-21.687.258-.9.646-1.937.9-2.84.9-2.324.9-2.324-1.42-2.453a39.657,39.657,0,0,1-10.971-1.678,21.389,21.389,0,0,1-8.909-4.774,9.858,9.858,0,0,1-1.162-1.162.823.823,0,0,1,0-.775c.129-.258.387-.258.646-.129a.671.671,0,0,1,.516.258c4.39,2.582,9.167,3.1,13.944,3.483,2.708.129,5.29.129,7.872,0,2.066,0,2.195,0,2.84-2.063,2.195-6.972,5.164-13.686,8-20.525a2.6,2.6,0,0,0,.516-1.033c.775-1.678,1.162-1.808,2.966-1.162a9.806,9.806,0,0,0,1.42.516c1.808.775,2.066,1.162,1.42,2.97-1.033,3.1-2.195,6.065-3.228,9.164l-3.483,9.3C340.8,40.89,340.416,41.277,340.674,41.922Zm14.844,3.354a6.04,6.04,0,0,0-2.195.258A107.6,107.6,0,0,1,340.416,47.6a3.052,3.052,0,0,0-3.1,2.453c-1.549,4.777-3.357,9.554-5.035,14.457-2.97,8.521-5.681,17.168-6.843,26.206a18.776,18.776,0,0,0,.129,7.1c.387,1.162.646,1.162,1.42.387a45.868,45.868,0,0,0,2.969-4c9.941-14.973,17.685-30.983,25.173-47.118A2.136,2.136,0,0,0,355.518,45.276Zm23.372,58.089h-1.42c-5.807.129-9.164-3.225-10.326-8.776a25.941,25.941,0,0,1,.516-11.362,48.3,48.3,0,0,1,11.487-22.2,16.835,16.835,0,0,1,8.134-5.423,9.412,9.412,0,0,1,5.939.646,31.35,31.35,0,0,0,2.966,1.42c4.132,1.549,6.455,5.807,5.293,10.971a16.206,16.206,0,0,1-2.97,6.2,26.313,26.313,0,0,1-11.487,8.26,16.971,16.971,0,0,1-9.812.646c-1.8-.387-1.933-.258-2.321,1.42a24.315,24.315,0,0,0-.646,9.167,8.591,8.591,0,0,0,2.582,5.81,3.342,3.342,0,0,0,4,.771,22.439,22.439,0,0,0,5.552-2.837A115.654,115.654,0,0,0,400.319,87.1c2.84-2.453,5.681-4.906,8.263-7.485a1.322,1.322,0,0,1,.775-.646,1.367,1.367,0,0,1,1.678.129c.646.516.129,1.033-.258,1.549a13.656,13.656,0,0,1-1.291,1.546,168.556,168.556,0,0,1-18.072,16.526,28.626,28.626,0,0,1-5.423,3.225A14.036,14.036,0,0,1,378.89,103.366Zm15.493-40.921v-.771c-.129-2.324-.646-2.582-2.711-1.678a17.125,17.125,0,0,0-5.293,3.741,36.761,36.761,0,0,0-9.551,14.977c-.258.516-.646,1.162-.258,1.549.384.646,1.159.258,1.8,0,5.939-1.42,10.329-5.164,13.556-10.329A13.986,13.986,0,0,0,394.383,62.444Zm29.308,11.491a98.569,98.569,0,0,1,6.455-8.521c2.84-3.354,5.81-6.581,9.809-8.647a16.064,16.064,0,0,1,2.582-1.291,6.217,6.217,0,0,1,5.035,0c.775.387,1.678.646,2.453,1.033,1.808.646,3.1,3.486,2.582,5.293q-.387.963-1.162.771c-1.162-.258-2.453-.513-2.969-1.8-.9-2.453-1.291-2.582-4.261-1.291a32.106,32.106,0,0,0-10.325,8.26,117.157,117.157,0,0,0-17.943,27.5c-.775,1.678-1.549,3.486-2.195,5.29a2.382,2.382,0,0,1-2.582,1.937c-3.357.258-3.744-.129-2.97-3.354.646-3.1,1.678-6.068,2.582-9.167,3.486-10.971,7.23-21.945,10.971-32.787.775-1.937,1.033-2.066,2.97-1.162a7.9,7.9,0,0,1,1.549.646c1.678.775,1.808,1.162,1.549,2.97a70.477,70.477,0,0,1-2.582,8.905c-.775,1.678-1.291,3.486-1.937,5.293C423.433,73.806,423.562,73.935,423.691,73.935Z" transform="translate(1.591 3.537)" fill="#a90533"/>
        </g>
      </g>
    </g>
  </g>
</svg>
